<mxfile host="app.diagrams.net" modified="2024-04-20T10:46:51.284Z" agent="Mozilla/5.0 (Macintosh; Intel Mac OS X 10_15_7) AppleWebKit/605.1.15 (KHTML, like Gecko) Version/17.1 Safari/605.1.15" version="24.2.7" etag="4Jn4lkf4DsjqbtWuM_E2" type="github">
  <diagram name="第 1 页" id="HQKBoGdfGdWaGiIkkb_u">
    <mxGraphModel>
      <root>
        <mxCell id="0" />
        <mxCell id="1" parent="0" />
      </root>
    </mxGraphModel>
  </diagram>
</mxfile>
